<svg version="1.2" xmlns="http://www.w3.org/2000/svg" viewBox="0 0 525 164" width="525" height="164">
	<style>
		.s0 { opacity: 1;fill: #193c6e } 
		.s1 { opacity: 1;fill: #a8cb2f } 
	</style>
	<g id="Layer 1">
		<path id="Path 0" fill-rule="evenodd" class="s0" d="m523.5 65.95l-0.75 3.03c-0.41 1.66-1.42 4.6-3.75 10.02l-18.25 0.25c-17.41 0.24-18.45 0.37-22.61 2.75-2.39 1.37-4.94 3.62-5.66 5-0.72 1.37-1.63 4.75-2.02 7.5-0.56 3.95-0.28 5.95 1.3 9.5 1.11 2.47 4.43 7.33 7.38 10.8 2.95 3.46 6.15 6.72 7.11 7.25 1.29 0.7 2.35 0.43 4-1.01 1.24-1.08 4.5-4.88 12.25-14.97l18.5-0.07-9.14 10.25c-5.03 5.64-10.31 11.73-14.36 16.83l3 3.9c1.65 2.14 7.16 8.65 21.5 25.02l-18.5 0.03-7.5-9.2c-4.13-5.06-7.95-9.36-8.5-9.56-0.55-0.19-4.6 3.93-17 18.68l-18 0.14 3.99-4.79c2.19-2.64 7.07-8.4 10.85-12.8 3.78-4.4 7.27-8.79 7.76-9.75 0.7-1.36-0.27-3.11-4.35-7.87-2.89-3.37-7.23-8.65-9.64-11.75-2.42-3.1-5.05-7.21-5.85-9.13-0.81-1.92-1.47-6.42-1.48-10-0.01-4.26 0.65-8.05 1.92-11 1.07-2.47 3.32-6.08 4.99-8 1.68-1.92 5.47-4.75 8.43-6.27 2.96-1.53 7.63-3.16 10.38-3.64 2.75-0.47 13.77-0.92 44-1.14zm-402.43 40.36c17.35 0.19 17.63 0.23 21.75 2.94 2.3 1.51 5.42 4.63 6.93 6.92 2.59 3.93 2.77 4.96 3.43 30.33l-3.34 4.97c-1.84 2.74-4.91 6.03-6.84 7.31-1.92 1.28-4.62 2.56-6 2.83-1.37 0.28-3.29 0.93-4.25 1.45-0.96 0.52-6.59 0.93-12.5 0.91-7.46-0.02-12.89-0.62-17.75-1.96-3.85-1.06-8.12-2.79-9.5-3.84-1.37-1.05-3.76-3.43-5.3-5.29-2.33-2.81-2.96-4.8-3.71-11.88-0.5-4.68-0.64-11.2-0.31-14.5 0.33-3.3 1.16-7.12 1.84-8.5 0.68-1.37 3.09-4.19 5.36-6.25 2.27-2.06 5.13-3.96 6.37-4.21 1.24-0.25 3.15-0.68 4.25-0.94 1.1-0.26 9.91-0.39 19.57-0.29zm-19.63 15.51c-1.38 1.99-1.99 5.13-2.34 12.18l-0.48 9.5 6.38 6.5c26.42-0.47 28.17-0.72 29.96-2.5 1.35-1.35 2.22-3.96 2.65-8 0.36-3.3 0.37-8.59 0.02-11.75-0.53-4.85-1.06-6.02-3.38-7.46-2.11-1.3-5.43-1.75-14.25-1.91-6.32-0.11-12.67 0.01-14.1 0.27-1.43 0.27-3.44 1.69-4.46 3.17z"/>
		<path id="Path 1" class="s1" d="m2.56 3.25c-0.22 0.69-0.67 3.27-1.01 5.75-0.34 2.48-0.27 17.44 0.17 33.25l0.78 28.75h15.5v-69c-12.67 0-15.17 0.4-15.44 1.25z"/>
		<path id="Path 2" fill-rule="evenodd" class="s0" d="m52 87.05c13.47-0.06 24.72 0.09 25 0.34 0.28 0.24 0.39 3.18 0 12.61l-24.43 0.25c-22.89 0.23-24.6 0.38-27.25 2.31-1.55 1.14-3.69 3.84-4.76 6-1.59 3.24-1.95 6.17-2 16.5-0.06 11.86 0.08 12.79 2.51 16.5 1.43 2.19 4.32 4.78 6.5 5.84 3.37 1.63 7.17 1.99 26.68 2.5 21.88 0.58 22.76 0.68 22.76 2.6 0.01 1.1 0.34 3.73 1.49 9.71l-27-0.45c-19.72-0.33-28.06-0.83-30.91-1.85-2.16-0.78-5.76-3.02-8-5-2.44-2.13-5.3-6.18-7.09-10-2.9-6.2-3-6.89-3-20.91 0-10.16 0.43-15.7 1.45-18.5 0.8-2.21 3.94-6.5 7-9.57 4.3-4.31 6.79-5.93 11.05-7.17 4.32-1.26 10.75-1.62 30-1.71zm110.17 18.78l27.16 0.34c26.27 0.32 27.28 0.4 30.42 2.58 1.79 1.24 4.45 4.39 5.92 7 2.59 4.6 2.69 5.39 3.83 46.26l-15.5-0.01-0.32-18.25c-0.24-13.32-0.71-19-1.75-21.02-0.79-1.53-1.99-2.99-2.68-3.25-0.69-0.27-7.89-0.77-30.75-1.78l-0.74 8.4c-0.41 4.62-0.75 14.59-0.76 35.9h-15zm76.93 0.07l52.55 0.6 4.18 2.75c2.34 1.54 5.15 4.61 6.41 7 2.08 3.94 2.25 5.73 2.76 45.75h-15l-0.25-19.47c-0.22-17.14-0.46-19.68-2.03-21.25-1.53-1.53-3.94-1.82-16.75-2.03-8.23-0.14-15.05-0.14-15.15 0-0.1 0.13-0.43 9.7-1.32 42.25l-15.5 0.5zm110.98 0.34c18.4 0.25 18.62 0.28 22.75 3 2.3 1.51 4.94 4.21 5.87 6 0.92 1.79 1.7 5.5 1.72 8.25 0.02 3.21-0.67 6.23-1.94 8.43-1.08 1.89-3.55 4.37-5.47 5.5-3.18 1.88-5.34 2.09-44 2.57v2.5c0 1.38 1.12 3.63 2.5 5 2.39 2.39 3.05 2.5 15.25 2.61 7.01 0.05 16.8 0.39 30.75 1.39l0.5 10.5-23.75-0.06c-20.51-0.05-24.3-0.3-27.75-1.83-2.2-0.98-5.46-3.2-7.25-4.94-2.12-2.07-3.82-5.16-4.88-8.92-1.19-4.17-1.52-8.37-1.2-15.25 0.36-7.99 0.86-10.25 3.13-14.25 1.48-2.61 3.94-5.53 5.45-6.49 1.51-0.95 4.32-2.3 6.25-2.99 2.44-0.88 9.1-1.19 22.07-1.02zm-19.75 15.42c-0.75 1-1.35 3.07-1.34 4.58l0.02 2.75c33.11 0 36.08-0.24 36.5-1.5 0.27-0.82 0.5-2.4 0.5-3.5 0-1.1-0.9-2.9-2-4-1.79-1.79-3.26-1.99-13.75-1.9-6.46 0.06-13.29 0.47-15.16 0.92-1.88 0.44-4.02 1.64-4.77 2.65zm116.68-15.67v12l-16.25 0.02c-8.94 0.02-18.05 0.46-20.25 0.98-2.2 0.53-4.9 1.88-6 3.01-1.73 1.77-2 3.4-2 11.99 0 9.54 0.11 10.06 5.55 15.5l38.95 0.5v12.5l-22.25-0.58c-21.76-0.56-22.36-0.63-27-3.25-2.7-1.51-5.94-4.48-7.5-6.85-2.65-4.02-2.75-4.66-2.75-17.33 0-12.86 0.06-13.25 3-18.01 1.65-2.67 4.57-5.77 6.5-6.89 1.92-1.11 5.07-2.32 7-2.69 1.92-0.37 12.39-0.72 43-0.9z"/>
		<path id="Path 3" fill-rule="evenodd" class="s1" d="m106 3.03c2.47 0 5.17 0.43 6 0.96 0.87 0.56 1.81 3.4 2.24 6.74 0.41 3.17 0.86 5.88 1 6.01 0.14 0.13 4.88 0.58 20.77 1.76l-0.01 11.5-9.95 0.25c-5.47 0.14-10.42 0.7-11 1.25-0.59 0.55-1.13 5.27-1.2 10.5-0.1 6.76 0.3 10.37 1.38 12.5 1.15 2.26 2.48 3.18 5.4 3.74 2.13 0.41 6.23 0.74 9.12 0.75 4.24 0.01 5.44 0.39 6.25 2.01 0.58 1.16 0.68 3.74-0.5 10.22l-12-0.39c-8.81-0.29-12.86-0.85-15.25-2.11-1.79-0.95-4.35-3.18-5.69-4.97-1.64-2.18-2.83-5.71-3.63-10.75-0.73-4.65-1.03-15.2-0.8-27.78 0.3-16.66 0.64-20.46 1.87-21.24 0.83-0.52 3.53-0.95 6-0.95zm-79.47 14.43l20.99 0.29c11.54 0.16 23.23 0.52 25.98 0.8 2.75 0.28 6.46 1.39 8.25 2.48 1.93 1.17 4.32 4.1 5.9 7.22 2.09 4.14 2.75 7.14 3.13 14.25 0.26 4.95 0.2 13.39-0.78 28.5l-14.5 0.01-0.82-18.26c-0.68-14.92-1.13-18.57-2.5-20.03-1.46-1.55-3.51-1.78-29.18-1.72l-0.01 11.75c0 6.46-0.34 15.47-1.49 28.27l-14.5-0.02zm211.47-0.25c5.22 0.02 10.85 0.32 12.5 0.67 2.41 0.51 3.06 1.21 3.31 3.63 0.18 1.65 0.07 4.01-0.25 5.24-0.5 2-1.21 2.26-6.31 2.3-3.17 0.03-8.76 0.37-12.44 0.75-3.68 0.39-7.28 1.29-8 2-0.93 0.92-1.53 6.56-2.03 19-0.4 9.74-0.96 18.27-1.25 18.95-0.36 0.83-2.88 1.25-14.53 1.25v-17.75c0-10.26 0.49-19.43 1.15-21.75 0.62-2.2 2.76-5.71 4.74-7.79 2.46-2.59 5.2-4.23 8.61-5.16 2.75-0.75 9.27-1.36 14.5-1.34zm-83.52 0.68l38.18 0.61 3.85 3c2.13 1.65 4.45 4.47 5.17 6.25 0.73 1.79 1.32 4.83 1.32 6.75 0 1.93-0.59 4.97-1.32 6.75-0.72 1.79-3.05 4.6-9.03 9.25l-18.08 0.63c-9.94 0.35-18.19 0.69-18.32 0.75-0.14 0.07-0.27 0.69-0.29 1.37-0.01 0.69 0.93 2.15 2.11 3.25 1.94 1.82 3.91 2.05 21.45 2.5 10.62 0.28 19.69 0.89 20.14 1.35 0.46 0.47 1.06 3.06 1.84 10.68l-21.5-0.02c-11.83-0.01-23.08-0.46-25-0.99-1.93-0.54-5.27-2.45-7.43-4.25-2.16-1.8-4.74-5.07-5.73-7.27-1.31-2.92-1.81-6.56-1.84-13.5-0.02-5.22 0.49-11.07 1.14-13 0.65-1.92 2.04-4.62 3.09-6 1.06-1.37 3.8-3.76 6.08-5.3zm2.46 16.57c-0.79 1.38-1.21 2.77-0.94 3.07 0.28 0.31 6.13 1.06 13 1.68 10.42 0.94 13 0.89 15.49-0.29 1.64-0.78 3.12-2.09 3.28-2.92 0.17-0.82-0.28-2.31-0.98-3.31-1.08-1.51-3.16-1.88-12.79-2.26-6.47-0.25-12.4-0.02-13.56 0.53-1.14 0.54-2.72 2.11-3.5 3.5z"/>
	</g>
</svg>